<?xml version="1.0" encoding="utf-8"?>
<!-- Generator: Adobe Illustrator 16.0.0, SVG Export Plug-In . SVG Version: 6.00 Build 0)  -->
<!DOCTYPE svg PUBLIC "-//W3C//DTD SVG 1.1//EN" "http://www.w3.org/Graphics/SVG/1.1/DTD/svg11.dtd">
<svg version="1.1" id="Capa_1" xmlns="http://www.w3.org/2000/svg" xmlns:xlink="http://www.w3.org/1999/xlink" x="0px" y="0px"
	 width="566.929px" height="425.197px" viewBox="0 0 566.929 425.197" enable-background="new 0 0 566.929 425.197"
	 xml:space="preserve">
<g>
	<path fill="#27348B" d="M77.393,159.751c3.719,0,6.98,0.639,9.781,1.916c2.8,1.277,5.143,2.992,7.025,5.143s3.304,4.65,4.269,7.496
		c0.963,2.847,1.445,5.838,1.445,8.975c0,3.138-0.482,6.129-1.445,8.975c-0.964,2.847-2.386,5.345-4.269,7.496
		s-4.225,3.865-7.025,5.143c-2.801,1.277-6.062,1.916-9.781,1.916H57.091v-47.059H77.393z M65.561,199.886h11.227
		c2.464,0,4.627-0.438,6.487-1.312c1.859-0.874,3.405-2.072,4.639-3.597c1.232-1.522,2.151-3.294,2.756-5.311
		c0.605-2.017,0.907-4.168,0.907-6.454c0-2.285-0.302-4.437-0.907-6.453c-0.605-2.018-1.524-3.787-2.756-5.312
		c-1.233-1.523-2.78-2.722-4.639-3.596c-1.86-0.874-4.023-1.311-6.487-1.311H65.561V199.886z"/>
	<path fill="#27348B" d="M129.023,159.751l20.167,46.185c0.09,0.225,0.101,0.427,0.034,0.605c-0.067,0.18-0.235,0.269-0.505,0.269
		h-7.798l-3.294-7.731H112.62l-3.092,7.731h-7.798c-0.269,0-0.437-0.089-0.504-0.269c-0.067-0.179-0.057-0.381,0.034-0.605
		l19.361-46.185H129.023z M114.973,193.297h20.235l-10.286-24.604L114.973,193.297z"/>
	<path fill="#27348B" d="M152.619,159.751l15.327,37.646l15.396-37.646h7.798c0.269,0,0.438,0.09,0.504,0.269
		c0.067,0.18,0.056,0.381-0.033,0.605l-19.697,46.185h-7.798l-20.102-46.185c-0.09-0.224-0.101-0.425-0.033-0.605
		c0.067-0.179,0.235-0.269,0.504-0.269H152.619z"/>
	<path fill="#27348B" d="M206.938,159.751v47.059h-8.471v-47.059H206.938z"/>
	<path fill="#27348B" d="M238.265,159.751c3.72,0,6.98,0.639,9.782,1.916c2.8,1.277,5.143,2.992,7.024,5.143
		c1.883,2.151,3.305,4.65,4.27,7.496c0.963,2.847,1.445,5.838,1.445,8.975c0,3.138-0.482,6.129-1.445,8.975
		c-0.965,2.847-2.387,5.345-4.27,7.496c-1.882,2.151-4.225,3.865-7.024,5.143c-2.802,1.277-6.063,1.916-9.782,1.916h-20.302v-47.059
		H238.265z M226.434,199.886h11.227c2.464,0,4.627-0.438,6.487-1.312c1.859-0.874,3.405-2.072,4.639-3.597
		c1.232-1.522,2.151-3.294,2.756-5.311c0.605-2.017,0.908-4.168,0.908-6.454c0-2.285-0.303-4.437-0.908-6.453
		c-0.604-2.018-1.523-3.787-2.756-5.312c-1.233-1.523-2.779-2.722-4.639-3.596c-1.86-0.874-4.023-1.311-6.487-1.311h-11.227V199.886
		z"/>
	<path fill="#36A9E1" d="M313.423,159.751c2.732,0,5.109,0.393,7.126,1.177c2.017,0.785,3.674,1.872,4.975,3.26
		c1.299,1.39,2.263,3.037,2.891,4.941c0.627,1.906,0.941,3.956,0.941,6.151c0,3.541-0.74,6.487-2.219,8.841
		c-1.479,2.353-3.496,4.112-6.051,5.277l11.832,16.604c0.09,0.135,0.111,0.303,0.067,0.504c-0.045,0.202-0.18,0.303-0.403,0.303
		h-8.739l-10.823-16h-14.387v16h-8.336v-47.059H313.423z M298.633,184.49h13.646c2.6,0,4.717-0.783,6.354-2.353
		c1.636-1.568,2.453-3.765,2.453-6.588c0-2.645-0.739-4.817-2.218-6.521c-1.479-1.703-3.676-2.555-6.589-2.555h-13.646V184.49z"/>
	<path fill="#36A9E1" d="M376.347,159.751v6.79h-28.101v13.311h27.898v5.782h-27.898v14.252h28.167v6.924h-36.638v-47.059H376.347z"
		/>
	<path fill="#36A9E1" d="M391.203,159.751l15.395,22.117l15.462-22.117h7.798c0.225,0,0.37,0.113,0.438,0.336
		c0.067,0.225,0.033,0.426-0.101,0.605l-19.832,28.168v17.949h-8.471V188.86l-19.832-28.168c-0.134-0.179-0.168-0.38-0.101-0.605
		c0.067-0.224,0.235-0.336,0.505-0.336H391.203z"/>
	<path fill="#36A9E1" d="M473.757,159.751v6.79h-28.101v13.311h27.898v5.782h-27.898v14.252h28.167v6.924h-36.638v-47.059H473.757z"
		/>
	<path fill="#36A9E1" d="M482.697,196.12c2.464,1.436,5.075,2.601,7.832,3.496c2.756,0.897,5.882,1.345,9.378,1.345
		c3.45,0,6.207-0.571,8.269-1.714c2.061-1.144,3.093-2.857,3.093-5.144c0-1.03-0.281-1.972-0.841-2.823
		c-0.561-0.851-1.49-1.613-2.79-2.286c-1.21-0.627-2.645-1.164-4.302-1.613c-1.659-0.447-3.407-0.918-5.244-1.411
		c-1.838-0.493-3.687-1.064-5.546-1.715c-1.86-0.648-3.575-1.513-5.143-2.588c-1.748-1.165-3.082-2.51-4-4.033
		c-0.92-1.523-1.379-3.429-1.379-5.715c0-2.375,0.481-4.403,1.445-6.084s2.274-3.047,3.934-4.101
		c1.657-1.053,3.551-1.826,5.681-2.319c2.128-0.493,4.38-0.739,6.756-0.739c3.45,0,6.744,0.437,9.882,1.311
		c3.137,0.874,5.871,1.939,8.202,3.193l-2.487,6.319c-2.242-1.165-4.639-2.128-7.193-2.891c-2.555-0.762-5.177-1.143-7.865-1.143
		c-1.345,0-2.634,0.135-3.866,0.403c-1.232,0.269-2.342,0.672-3.327,1.21c-0.986,0.538-1.771,1.221-2.354,2.05
		c-0.583,0.83-0.874,1.804-0.874,2.924c0,1.075,0.303,1.994,0.908,2.756c0.604,0.763,1.422,1.457,2.453,2.084
		c1.3,0.763,2.778,1.39,4.438,1.883c1.657,0.493,3.372,0.964,5.143,1.411c1.771,0.449,3.529,0.941,5.277,1.479
		s3.384,1.233,4.907,2.084c2.106,1.166,3.664,2.578,4.673,4.235c1.008,1.658,1.513,3.697,1.513,6.117
		c0,2.421-0.494,4.494-1.479,6.219c-0.986,1.726-2.343,3.159-4.067,4.303c-1.726,1.143-3.754,1.982-6.084,2.521
		c-2.331,0.538-4.863,0.807-7.597,0.807c-4.033,0-7.642-0.516-10.823-1.546c-3.183-1.03-6.073-2.397-8.672-4.101L482.697,196.12z"/>
</g>
<g>
	<g>
		<path fill="#9D9D9C" d="M31.947,237.967c0,5.353-2.701,8.028-8.102,8.028H18.8v-15.889h5.045
			C29.246,230.106,31.947,232.727,31.947,237.967z M29.78,237.967c0-0.928-0.092-1.762-0.277-2.501
			c-0.185-0.74-0.504-1.366-0.958-1.879c-0.454-0.514-1.063-0.905-1.827-1.178s-1.729-0.408-2.894-0.408h-2.92v12.1h2.92
			c1.158,0,2.12-0.14,2.884-0.419c0.764-0.278,1.373-0.68,1.826-1.203s0.775-1.166,0.963-1.926
			C29.686,239.792,29.78,238.93,29.78,237.967z"/>
		<path fill="#9D9D9C" d="M37.222,245.995h-2.093v-15.889h2.093V245.995z"/>
		<path fill="#9D9D9C" d="M47.019,246.268c-1.124,0-2.104-0.133-2.941-0.398c-0.837-0.265-1.536-0.635-2.094-1.109
			s-0.982-1.041-1.271-1.7c-0.29-0.66-0.449-1.388-0.477-2.183h2.031c0.056,0.606,0.216,1.13,0.481,1.57
			c0.265,0.439,0.604,0.802,1.015,1.088s0.888,0.499,1.429,0.639c0.541,0.14,1.115,0.209,1.722,0.209
			c0.593,0,1.132-0.063,1.617-0.188c0.485-0.125,0.9-0.305,1.246-0.538c0.345-0.234,0.612-0.519,0.8-0.854
			c0.188-0.335,0.283-0.712,0.283-1.131c0-0.439-0.085-0.809-0.256-1.109c-0.171-0.3-0.452-0.563-0.843-0.79
			c-0.391-0.227-0.902-0.431-1.533-0.612c-0.632-0.182-1.408-0.366-2.329-0.555c-0.893-0.202-1.661-0.433-2.303-0.69
			c-0.642-0.259-1.172-0.563-1.591-0.916c-0.418-0.353-0.728-0.756-0.926-1.209c-0.199-0.454-0.298-0.974-0.298-1.56
			c0-0.635,0.136-1.221,0.408-1.759c0.272-0.537,0.658-1.001,1.157-1.392c0.499-0.391,1.095-0.696,1.79-0.916s1.464-0.33,2.308-0.33
			c0.886,0,1.697,0.108,2.434,0.324c0.736,0.217,1.37,0.531,1.9,0.942c0.53,0.412,0.947,0.912,1.25,1.502
			c0.304,0.59,0.466,1.258,0.487,2.005h-2.031c-0.223-1.919-1.539-2.879-3.946-2.879c-1.187,0-2.097,0.219-2.732,0.654
			c-0.635,0.437-0.953,1.031-0.953,1.785c0,0.327,0.06,0.612,0.178,0.853c0.119,0.241,0.319,0.452,0.602,0.634
			c0.283,0.181,0.656,0.345,1.12,0.491s1.045,0.293,1.743,0.439c0.475,0.099,0.963,0.204,1.465,0.319s0.991,0.253,1.465,0.414
			c0.475,0.16,0.923,0.357,1.345,0.591c0.422,0.234,0.792,0.515,1.109,0.843s0.569,0.717,0.754,1.167
			c0.185,0.45,0.277,0.976,0.277,1.575c0,0.698-0.146,1.34-0.44,1.926c-0.293,0.587-0.701,1.091-1.225,1.513
			c-0.523,0.423-1.145,0.75-1.863,0.984C48.666,246.15,47.877,246.268,47.019,246.268z"/>
		<path fill="#9D9D9C" d="M67.701,245.995H55.832v-15.889h11.503v1.895h-9.399v4.825h8.792v1.884h-8.792v5.391h9.766V245.995z"/>
		<path fill="#9D9D9C" d="M83.151,245.995h-2.156l-8.342-12.529v12.529h-1.999v-15.889h2.177l8.311,12.55v-12.55h2.01V245.995z
			 M80.534,226.453c0,0.392-0.054,0.74-0.163,1.047c-0.108,0.308-0.26,0.567-0.455,0.78s-0.428,0.375-0.696,0.486
			s-0.56,0.167-0.874,0.167c-0.104,0-0.242-0.022-0.413-0.067c-0.171-0.046-0.354-0.102-0.55-0.168s-0.396-0.14-0.602-0.22
			c-0.206-0.08-0.398-0.153-0.576-0.22c-0.178-0.066-0.333-0.122-0.466-0.167c-0.133-0.046-0.224-0.068-0.272-0.068
			c-0.454,0-0.711,0.314-0.774,0.942h-1.434c0-0.384,0.056-0.731,0.167-1.042c0.112-0.311,0.267-0.573,0.466-0.79
			c0.199-0.216,0.433-0.382,0.701-0.497s0.56-0.173,0.874-0.173c0.098,0,0.229,0.022,0.393,0.068
			c0.164,0.045,0.344,0.103,0.539,0.173c0.195,0.069,0.394,0.146,0.597,0.229c0.202,0.084,0.394,0.161,0.576,0.23
			c0.182,0.07,0.34,0.128,0.476,0.173c0.136,0.046,0.236,0.068,0.298,0.068c0.44,0,0.694-0.317,0.764-0.953H80.534z"/>
		<path fill="#9D9D9C" d="M99.762,245.995h-2.387l-1.842-4.825h-6.657l-1.758,4.825h-2.208L91,230.106h2.282L99.762,245.995z
			 M94.926,239.484l-2.805-7.357l-2.659,7.357H94.926z"/>
		<path fill="#9D9D9C" d="M114.656,237.967c0,5.353-2.701,8.028-8.102,8.028h-5.045v-15.889h5.045
			C111.956,230.106,114.656,232.727,114.656,237.967z M112.489,237.967c0-0.928-0.092-1.762-0.277-2.501
			c-0.185-0.74-0.504-1.366-0.958-1.879c-0.454-0.514-1.063-0.905-1.827-1.178s-1.729-0.408-2.894-0.408h-2.92v12.1h2.92
			c1.158,0,2.12-0.14,2.884-0.419c0.764-0.278,1.373-0.68,1.826-1.203s0.775-1.166,0.963-1.926
			C112.395,239.792,112.489,238.93,112.489,237.967z"/>
		<path fill="#9D9D9C" d="M124.432,229.834c1.103,0,2.118,0.197,3.046,0.592c0.928,0.395,1.73,0.949,2.407,1.664
			c0.677,0.716,1.204,1.577,1.581,2.585c0.377,1.009,0.565,2.13,0.565,3.365c0,1.215-0.187,2.325-0.56,3.334
			c-0.374,1.009-0.895,1.875-1.565,2.601c-0.67,0.727-1.471,1.29-2.402,1.69c-0.932,0.401-1.956,0.603-3.072,0.603
			c-1.117,0-2.141-0.199-3.072-0.597c-0.932-0.398-1.734-0.958-2.407-1.681c-0.673-0.722-1.197-1.587-1.57-2.596
			c-0.373-1.008-0.56-2.126-0.56-3.354c0-1.242,0.19-2.367,0.57-3.375c0.38-1.009,0.909-1.87,1.585-2.586
			c0.677-0.715,1.479-1.268,2.408-1.659C122.314,230.029,123.33,229.834,124.432,229.834z M124.421,244.467
			c0.795,0,1.526-0.146,2.193-0.439s1.24-0.715,1.722-1.267c0.482-0.551,0.857-1.225,1.125-2.02
			c0.269-0.796,0.403-1.696,0.403-2.701c0-1.012-0.136-1.915-0.408-2.711c-0.272-0.795-0.649-1.465-1.13-2.01
			c-0.481-0.544-1.052-0.959-1.711-1.245c-0.659-0.286-1.376-0.43-2.151-0.43c-0.789,0-1.518,0.146-2.188,0.435
			c-0.67,0.29-1.248,0.71-1.732,1.262c-0.485,0.551-0.863,1.221-1.136,2.01c-0.272,0.788-0.408,1.685-0.408,2.689
			s0.134,1.905,0.403,2.701c0.269,0.795,0.644,1.469,1.125,2.02c0.481,0.552,1.054,0.974,1.717,1.267
			C122.907,244.32,123.633,244.467,124.421,244.467z"/>
		<path fill="#9D9D9C" d="M148.087,245.995h-2.282l-1.496-4.26c-0.133-0.37-0.313-0.71-0.539-1.021
			c-0.228-0.311-0.488-0.577-0.785-0.801c-0.296-0.224-0.626-0.398-0.989-0.523c-0.363-0.126-0.75-0.188-1.162-0.188h-3.904v6.793
			h-2.104v-15.889h7.044c0.426,0,0.831,0.009,1.214,0.026s0.75,0.061,1.099,0.131c0.349,0.069,0.681,0.174,0.994,0.313
			c0.314,0.14,0.61,0.328,0.89,0.565c0.244,0.209,0.457,0.445,0.639,0.706c0.182,0.262,0.334,0.539,0.456,0.833
			c0.122,0.293,0.214,0.596,0.277,0.91c0.063,0.314,0.094,0.632,0.094,0.952c0,0.552-0.082,1.062-0.246,1.528
			c-0.164,0.468-0.399,0.883-0.706,1.246c-0.308,0.362-0.683,0.668-1.126,0.916c-0.442,0.247-0.94,0.434-1.491,0.56
			c0.559,0.182,1.049,0.508,1.471,0.979s0.783,1.104,1.083,1.899L148.087,245.995z M136.929,237.308h4.721
			c0.656,0,1.218-0.049,1.685-0.146c0.468-0.098,0.852-0.255,1.151-0.471c0.3-0.217,0.52-0.501,0.659-0.854s0.21-0.783,0.21-1.293
			c0-0.914-0.279-1.589-0.838-2.025c-0.559-0.436-1.409-0.653-2.554-0.653h-5.035V237.308z"/>
		<path fill="#9D9D9C" d="M168.54,246.268c-1.145,0-2.189-0.197-3.135-0.592s-1.755-0.95-2.429-1.669
			c-0.673-0.719-1.194-1.584-1.564-2.597c-0.37-1.012-0.555-2.135-0.555-3.37c0-1.256,0.185-2.39,0.555-3.401s0.89-1.874,1.56-2.586
			c0.67-0.711,1.472-1.259,2.407-1.643c0.935-0.384,1.964-0.576,3.088-0.576c0.942,0,1.819,0.12,2.632,0.361
			c0.813,0.241,1.525,0.583,2.136,1.025c0.61,0.443,1.104,0.979,1.481,1.607c0.376,0.628,0.6,1.329,0.67,2.104h-2.188
			c-0.041-0.517-0.18-0.979-0.413-1.387s-0.555-0.754-0.963-1.036c-0.408-0.283-0.892-0.497-1.449-0.644
			c-0.559-0.147-1.184-0.221-1.874-0.221c-0.81,0-1.549,0.142-2.219,0.425c-0.67,0.282-1.246,0.695-1.728,1.24
			c-0.481,0.544-0.854,1.212-1.12,2.004c-0.265,0.792-0.397,1.701-0.397,2.727c0,1.005,0.133,1.905,0.397,2.701
			c0.266,0.795,0.639,1.469,1.12,2.02c0.481,0.552,1.06,0.974,1.732,1.267c0.674,0.293,1.415,0.439,2.225,0.439
			c1.172,0,2.177-0.185,3.015-0.555c0.837-0.37,1.538-0.935,2.104-1.695v-2.429h-4.187v-1.905h6.248v8.112h-1.518l-0.544-1.675
			C172.545,245.618,170.85,246.268,168.54,246.268z"/>
		<path fill="#9D9D9C" d="M192.121,245.995h-2.281l-1.497-4.26c-0.133-0.37-0.313-0.71-0.539-1.021s-0.488-0.577-0.785-0.801
			s-0.626-0.398-0.989-0.523c-0.362-0.126-0.75-0.188-1.161-0.188h-3.904v6.793h-2.104v-15.889h7.045
			c0.425,0,0.83,0.009,1.214,0.026s0.75,0.061,1.099,0.131c0.35,0.069,0.681,0.174,0.995,0.313c0.313,0.14,0.61,0.328,0.89,0.565
			c0.244,0.209,0.457,0.445,0.638,0.706c0.182,0.262,0.334,0.539,0.456,0.833c0.122,0.293,0.214,0.596,0.277,0.91
			c0.063,0.314,0.094,0.632,0.094,0.952c0,0.552-0.082,1.062-0.246,1.528c-0.164,0.468-0.399,0.883-0.706,1.246
			c-0.308,0.362-0.683,0.668-1.125,0.916c-0.443,0.247-0.94,0.434-1.492,0.56c0.559,0.182,1.049,0.508,1.471,0.979
			s0.783,1.104,1.083,1.899L192.121,245.995z M180.964,237.308h4.721c0.655,0,1.217-0.049,1.685-0.146s0.852-0.255,1.151-0.471
			c0.3-0.217,0.52-0.501,0.659-0.854s0.21-0.783,0.21-1.293c0-0.914-0.279-1.589-0.838-2.025c-0.558-0.436-1.409-0.653-2.554-0.653
			h-5.034V237.308z"/>
		<path fill="#9D9D9C" d="M207.968,245.995h-2.386l-1.843-4.825h-6.657l-1.758,4.825h-2.209l6.092-15.889h2.282L207.968,245.995z
			 M203.133,239.484l-2.806-7.357l-2.658,7.357H203.133z M202.546,226.233l-2.396,3.057h-1.622l1.454-3.057H202.546z"/>
		<path fill="#9D9D9C" d="M220.455,232.001h-8.635v4.909h7.505v1.884h-7.505v7.201h-2.104v-15.889h10.739V232.001z"/>
		<path fill="#9D9D9C" d="M225.668,245.995h-2.094v-15.889h2.094V245.995z"/>
		<path fill="#9D9D9C" d="M242.583,234.921h-2.156c-0.035-0.502-0.168-0.957-0.397-1.365c-0.23-0.408-0.536-0.754-0.916-1.037
			c-0.381-0.282-0.823-0.5-1.329-0.653c-0.507-0.154-1.053-0.23-1.639-0.23c-0.803,0-1.526,0.14-2.172,0.418
			c-0.646,0.279-1.194,0.691-1.648,1.235c-0.453,0.545-0.803,1.215-1.047,2.01c-0.244,0.796-0.366,1.71-0.366,2.742
			c0,1.026,0.122,1.938,0.366,2.737s0.594,1.471,1.047,2.015c0.454,0.545,1,0.96,1.639,1.246c0.638,0.286,1.352,0.429,2.14,0.429
			c0.614,0,1.176-0.076,1.686-0.23c0.509-0.153,0.95-0.38,1.324-0.68c0.373-0.3,0.673-0.668,0.9-1.104
			c0.227-0.437,0.364-0.937,0.413-1.502h2.156c-0.077,0.845-0.29,1.596-0.639,2.256c-0.349,0.659-0.806,1.216-1.371,1.669
			c-0.565,0.454-1.227,0.799-1.983,1.036s-1.575,0.356-2.454,0.356c-1.131,0-2.153-0.194-3.067-0.581
			c-0.914-0.388-1.692-0.938-2.334-1.654c-0.643-0.715-1.136-1.578-1.481-2.59c-0.345-1.012-0.518-2.146-0.518-3.402
			s0.174-2.39,0.523-3.401c0.349-1.012,0.844-1.877,1.486-2.596c0.642-0.719,1.42-1.271,2.334-1.659s1.933-0.581,3.057-0.581
			c0.837,0,1.631,0.122,2.381,0.366s1.415,0.59,1.994,1.036c0.579,0.447,1.05,0.986,1.413,1.617
			C242.286,233.454,242.506,234.153,242.583,234.921z"/>
		<path fill="#9D9D9C" d="M252.38,229.834c1.103,0,2.117,0.197,3.046,0.592c0.928,0.395,1.73,0.949,2.407,1.664
			c0.677,0.716,1.204,1.577,1.58,2.585c0.377,1.009,0.565,2.13,0.565,3.365c0,1.215-0.187,2.325-0.56,3.334
			c-0.374,1.009-0.896,1.875-1.565,2.601c-0.67,0.727-1.47,1.29-2.401,1.69c-0.932,0.401-1.956,0.603-3.072,0.603
			s-2.141-0.199-3.072-0.597c-0.932-0.398-1.734-0.958-2.407-1.681c-0.674-0.722-1.197-1.587-1.57-2.596
			c-0.373-1.008-0.56-2.126-0.56-3.354c0-1.242,0.189-2.367,0.57-3.375c0.38-1.009,0.909-1.87,1.586-2.586
			c0.677-0.715,1.479-1.268,2.407-1.659C250.262,230.029,251.277,229.834,252.38,229.834z M252.369,244.467
			c0.796,0,1.526-0.146,2.193-0.439c0.666-0.293,1.24-0.715,1.722-1.267c0.481-0.551,0.856-1.225,1.125-2.02
			c0.269-0.796,0.403-1.696,0.403-2.701c0-1.012-0.137-1.915-0.408-2.711c-0.272-0.795-0.649-1.465-1.131-2.01
			c-0.481-0.544-1.052-0.959-1.711-1.245c-0.66-0.286-1.377-0.43-2.151-0.43c-0.789,0-1.518,0.146-2.188,0.435
			c-0.67,0.29-1.247,0.71-1.732,1.262c-0.485,0.551-0.863,1.221-1.136,2.01c-0.271,0.788-0.408,1.685-0.408,2.689
			s0.135,1.905,0.403,2.701c0.269,0.795,0.644,1.469,1.125,2.02c0.481,0.552,1.054,0.974,1.717,1.267
			S251.581,244.467,252.369,244.467z"/>
		<path fill="#9D9D9C" d="M285.393,244.938l-1.581,1.33l-1.371-1.759c-1.249,1.172-2.826,1.759-4.73,1.759
			c-0.726,0-1.397-0.122-2.015-0.366c-0.618-0.244-1.15-0.576-1.597-0.995c-0.446-0.418-0.796-0.908-1.047-1.471
			c-0.251-0.562-0.377-1.163-0.377-1.805c0-0.984,0.304-1.843,0.911-2.575c0.6-0.732,1.524-1.451,2.773-2.156
			c-1.123-1.451-1.685-2.62-1.685-3.507c0-0.502,0.099-0.97,0.298-1.402s0.475-0.808,0.827-1.125
			c0.352-0.317,0.769-0.566,1.251-0.748c0.481-0.182,1.004-0.272,1.569-0.272c0.523,0,1.011,0.089,1.46,0.267
			c0.45,0.178,0.84,0.421,1.167,0.728c0.328,0.308,0.587,0.667,0.775,1.078c0.188,0.412,0.282,0.852,0.282,1.319
			c0,0.83-0.258,1.556-0.774,2.177c-0.517,0.614-1.295,1.221-2.334,1.821l3.192,3.978c0.313-0.796,0.492-1.692,0.533-2.69h2.114
			c-0.098,1.675-0.52,3.137-1.266,4.386L285.393,244.938z M281.289,243.075l-3.872-4.847c-0.922,0.552-1.588,1.064-2,1.539
			c-0.418,0.475-0.628,1.047-0.628,1.716c0,0.398,0.073,0.78,0.22,1.146c0.147,0.366,0.352,0.691,0.612,0.974
			c0.262,0.282,0.572,0.508,0.932,0.675c0.359,0.168,0.752,0.251,1.178,0.251C279.196,244.529,280.382,244.045,281.289,243.075z
			 M278.16,235.947c0.369-0.203,0.688-0.401,0.957-0.597s0.492-0.399,0.67-0.612c0.179-0.213,0.311-0.438,0.398-0.676
			c0.087-0.236,0.131-0.498,0.131-0.785c0-0.271-0.05-0.52-0.146-0.742c-0.099-0.224-0.23-0.417-0.398-0.581
			c-0.167-0.164-0.359-0.29-0.575-0.377c-0.217-0.087-0.443-0.131-0.681-0.131c-0.258,0-0.499,0.042-0.722,0.125
			c-0.224,0.084-0.419,0.201-0.587,0.352c-0.167,0.149-0.298,0.333-0.393,0.549c-0.094,0.217-0.141,0.457-0.141,0.723
			c0,0.579,0.324,1.28,0.973,2.104L278.16,235.947z"/>
		<path fill="#9D9D9C" d="M312.155,237.967c0,5.353-2.7,8.028-8.102,8.028h-5.045v-15.889h5.045
			C309.455,230.106,312.155,232.727,312.155,237.967z M309.989,237.967c0-0.928-0.093-1.762-0.277-2.501
			c-0.186-0.74-0.505-1.366-0.958-1.879c-0.454-0.514-1.063-0.905-1.826-1.178c-0.765-0.272-1.729-0.408-2.895-0.408h-2.92v12.1
			h2.92c1.158,0,2.119-0.14,2.884-0.419c0.764-0.278,1.373-0.68,1.826-1.203c0.454-0.523,0.774-1.166,0.963-1.926
			C309.895,239.792,309.989,238.93,309.989,237.967z"/>
		<path fill="#9D9D9C" d="M326.914,245.995h-11.87v-15.889h11.504v1.895h-9.399v4.825h8.792v1.884h-8.792v5.391h9.766V245.995z"/>
		<path fill="#9D9D9C" d="M335.874,246.268c-1.124,0-2.104-0.133-2.941-0.398c-0.838-0.265-1.535-0.635-2.094-1.109
			s-0.982-1.041-1.271-1.7c-0.29-0.66-0.448-1.388-0.477-2.183h2.031c0.056,0.606,0.216,1.13,0.481,1.57
			c0.265,0.439,0.604,0.802,1.015,1.088c0.412,0.286,0.888,0.499,1.429,0.639s1.115,0.209,1.722,0.209
			c0.594,0,1.133-0.063,1.617-0.188c0.485-0.125,0.9-0.305,1.246-0.538c0.345-0.234,0.612-0.519,0.801-0.854
			s0.282-0.712,0.282-1.131c0-0.439-0.085-0.809-0.256-1.109c-0.172-0.3-0.452-0.563-0.843-0.79
			c-0.392-0.227-0.902-0.431-1.534-0.612c-0.631-0.182-1.407-0.366-2.328-0.555c-0.894-0.202-1.661-0.433-2.303-0.69
			c-0.643-0.259-1.173-0.563-1.591-0.916c-0.419-0.353-0.728-0.756-0.927-1.209c-0.199-0.454-0.298-0.974-0.298-1.56
			c0-0.635,0.136-1.221,0.408-1.759c0.271-0.537,0.657-1.001,1.156-1.392s1.096-0.696,1.79-0.916s1.463-0.33,2.308-0.33
			c0.886,0,1.697,0.108,2.434,0.324c0.736,0.217,1.369,0.531,1.899,0.942c0.53,0.412,0.947,0.912,1.251,1.502
			s0.466,1.258,0.487,2.005h-2.031c-0.224-1.919-1.538-2.879-3.945-2.879c-1.187,0-2.098,0.219-2.732,0.654
			c-0.635,0.437-0.952,1.031-0.952,1.785c0,0.327,0.059,0.612,0.178,0.853c0.118,0.241,0.319,0.452,0.602,0.634
			c0.283,0.181,0.656,0.345,1.12,0.491s1.045,0.293,1.743,0.439c0.474,0.099,0.963,0.204,1.465,0.319
			c0.503,0.115,0.991,0.253,1.466,0.414c0.475,0.16,0.923,0.357,1.345,0.591c0.422,0.234,0.792,0.515,1.109,0.843
			s0.568,0.717,0.754,1.167c0.185,0.45,0.277,0.976,0.277,1.575c0,0.698-0.146,1.34-0.439,1.926
			c-0.293,0.587-0.701,1.091-1.225,1.513c-0.523,0.423-1.145,0.75-1.863,0.984C337.521,246.15,336.731,246.268,335.874,246.268z"/>
		<path fill="#9D9D9C" d="M357.76,245.995h-2.386l-1.843-4.825h-6.657l-1.758,4.825h-2.209l6.092-15.889h2.282L357.76,245.995z
			 M352.925,239.484l-2.806-7.357l-2.658,7.357H352.925z"/>
		<path fill="#9D9D9C" d="M372.77,245.995h-2.281l-1.497-4.26c-0.133-0.37-0.313-0.71-0.539-1.021s-0.488-0.577-0.785-0.801
			s-0.626-0.398-0.989-0.523c-0.362-0.126-0.75-0.188-1.161-0.188h-3.904v6.793h-2.104v-15.889h7.045
			c0.425,0,0.83,0.009,1.214,0.026s0.75,0.061,1.099,0.131c0.35,0.069,0.681,0.174,0.995,0.313c0.313,0.14,0.61,0.328,0.89,0.565
			c0.244,0.209,0.457,0.445,0.638,0.706c0.182,0.262,0.334,0.539,0.456,0.833c0.122,0.293,0.214,0.596,0.277,0.91
			c0.063,0.314,0.094,0.632,0.094,0.952c0,0.552-0.082,1.062-0.246,1.528c-0.164,0.468-0.399,0.883-0.706,1.246
			c-0.308,0.362-0.683,0.668-1.125,0.916c-0.443,0.247-0.94,0.434-1.492,0.56c0.559,0.182,1.049,0.508,1.471,0.979
			s0.783,1.104,1.083,1.899L372.77,245.995z M361.612,237.308h4.721c0.655,0,1.217-0.049,1.685-0.146s0.852-0.255,1.151-0.471
			c0.3-0.217,0.52-0.501,0.659-0.854s0.21-0.783,0.21-1.293c0-0.914-0.279-1.589-0.838-2.025c-0.558-0.436-1.409-0.653-2.554-0.653
			h-5.034V237.308z"/>
		<path fill="#9D9D9C" d="M388.805,245.995h-2.281l-1.497-4.26c-0.133-0.37-0.313-0.71-0.539-1.021s-0.488-0.577-0.785-0.801
			s-0.626-0.398-0.989-0.523c-0.362-0.126-0.75-0.188-1.161-0.188h-3.904v6.793h-2.104v-15.889h7.045
			c0.425,0,0.83,0.009,1.214,0.026s0.75,0.061,1.099,0.131c0.35,0.069,0.681,0.174,0.995,0.313c0.313,0.14,0.61,0.328,0.89,0.565
			c0.244,0.209,0.457,0.445,0.638,0.706c0.182,0.262,0.334,0.539,0.456,0.833c0.122,0.293,0.214,0.596,0.277,0.91
			c0.063,0.314,0.094,0.632,0.094,0.952c0,0.552-0.082,1.062-0.246,1.528c-0.164,0.468-0.399,0.883-0.706,1.246
			c-0.308,0.362-0.683,0.668-1.125,0.916c-0.443,0.247-0.94,0.434-1.492,0.56c0.559,0.182,1.049,0.508,1.471,0.979
			s0.783,1.104,1.083,1.899L388.805,245.995z M377.647,237.308h4.721c0.655,0,1.217-0.049,1.685-0.146s0.852-0.255,1.151-0.471
			c0.3-0.217,0.52-0.501,0.659-0.854s0.21-0.783,0.21-1.293c0-0.914-0.279-1.589-0.838-2.025c-0.558-0.436-1.409-0.653-2.554-0.653
			h-5.034V237.308z"/>
		<path fill="#9D9D9C" d="M398.466,229.834c1.103,0,2.117,0.197,3.046,0.592c0.928,0.395,1.73,0.949,2.407,1.664
			c0.677,0.716,1.204,1.577,1.58,2.585c0.377,1.009,0.565,2.13,0.565,3.365c0,1.215-0.187,2.325-0.56,3.334
			c-0.374,1.009-0.896,1.875-1.565,2.601c-0.67,0.727-1.47,1.29-2.401,1.69c-0.932,0.401-1.956,0.603-3.072,0.603
			s-2.141-0.199-3.072-0.597c-0.932-0.398-1.734-0.958-2.407-1.681c-0.674-0.722-1.197-1.587-1.57-2.596
			c-0.373-1.008-0.56-2.126-0.56-3.354c0-1.242,0.189-2.367,0.57-3.375c0.38-1.009,0.909-1.87,1.586-2.586
			c0.677-0.715,1.479-1.268,2.407-1.659C396.348,230.029,397.363,229.834,398.466,229.834z M398.455,244.467
			c0.796,0,1.526-0.146,2.193-0.439c0.666-0.293,1.24-0.715,1.722-1.267c0.481-0.551,0.856-1.225,1.125-2.02
			c0.269-0.796,0.403-1.696,0.403-2.701c0-1.012-0.137-1.915-0.408-2.711c-0.272-0.795-0.649-1.465-1.131-2.01
			c-0.481-0.544-1.052-0.959-1.711-1.245c-0.66-0.286-1.377-0.43-2.151-0.43c-0.789,0-1.518,0.146-2.188,0.435
			c-0.67,0.29-1.247,0.71-1.732,1.262c-0.485,0.551-0.863,1.221-1.136,2.01c-0.271,0.788-0.408,1.685-0.408,2.689
			s0.135,1.905,0.403,2.701c0.269,0.795,0.644,1.469,1.125,2.02c0.481,0.552,1.054,0.974,1.717,1.267
			S397.667,244.467,398.455,244.467z"/>
		<path fill="#9D9D9C" d="M418.709,245.995h-9.85v-15.889h2.104v13.994h7.745V245.995z"/>
		<path fill="#9D9D9C" d="M431.06,245.995h-9.85v-15.889h2.104v13.994h7.745V245.995z"/>
		<path fill="#9D9D9C" d="M446.635,245.995h-2.386l-1.843-4.825h-6.657l-1.758,4.825h-2.209l6.092-15.889h2.282L446.635,245.995z
			 M441.8,239.484l-2.806-7.357l-2.658,7.357H441.8z"/>
		<path fill="#9D9D9C" d="M461.528,237.967c0,5.353-2.7,8.028-8.102,8.028h-5.045v-15.889h5.045
			C458.828,230.106,461.528,232.727,461.528,237.967z M459.362,237.967c0-0.928-0.093-1.762-0.277-2.501
			c-0.186-0.74-0.505-1.366-0.958-1.879c-0.454-0.514-1.063-0.905-1.826-1.178c-0.765-0.272-1.729-0.408-2.895-0.408h-2.92v12.1
			h2.92c1.158,0,2.119-0.14,2.884-0.419c0.764-0.278,1.373-0.68,1.826-1.203c0.454-0.523,0.774-1.166,0.963-1.926
			C459.268,239.792,459.362,238.93,459.362,237.967z"/>
		<path fill="#9D9D9C" d="M471.305,229.834c1.103,0,2.117,0.197,3.046,0.592c0.928,0.395,1.73,0.949,2.407,1.664
			c0.677,0.716,1.204,1.577,1.58,2.585c0.377,1.009,0.565,2.13,0.565,3.365c0,1.215-0.187,2.325-0.56,3.334
			c-0.374,1.009-0.896,1.875-1.565,2.601c-0.67,0.727-1.47,1.29-2.401,1.69c-0.932,0.401-1.956,0.603-3.072,0.603
			s-2.141-0.199-3.072-0.597c-0.932-0.398-1.734-0.958-2.407-1.681c-0.674-0.722-1.197-1.587-1.57-2.596
			c-0.373-1.008-0.56-2.126-0.56-3.354c0-1.242,0.189-2.367,0.57-3.375c0.38-1.009,0.909-1.87,1.586-2.586
			c0.677-0.715,1.479-1.268,2.407-1.659C469.187,230.029,470.202,229.834,471.305,229.834z M471.294,244.467
			c0.796,0,1.526-0.146,2.193-0.439c0.666-0.293,1.24-0.715,1.722-1.267c0.481-0.551,0.856-1.225,1.125-2.02
			c0.269-0.796,0.403-1.696,0.403-2.701c0-1.012-0.137-1.915-0.408-2.711c-0.272-0.795-0.649-1.465-1.131-2.01
			c-0.481-0.544-1.052-0.959-1.711-1.245c-0.66-0.286-1.377-0.43-2.151-0.43c-0.789,0-1.518,0.146-2.188,0.435
			c-0.67,0.29-1.247,0.71-1.732,1.262c-0.485,0.551-0.863,1.221-1.136,2.01c-0.271,0.788-0.408,1.685-0.408,2.689
			s0.135,1.905,0.403,2.701c0.269,0.795,0.644,1.469,1.125,2.02c0.481,0.552,1.054,0.974,1.717,1.267
			S470.506,244.467,471.294,244.467z"/>
		<path fill="#9D9D9C" d="M494.96,245.995h-2.281l-1.497-4.26c-0.133-0.37-0.313-0.71-0.539-1.021s-0.488-0.577-0.785-0.801
			s-0.626-0.398-0.989-0.523c-0.362-0.126-0.75-0.188-1.161-0.188h-3.904v6.793h-2.104v-15.889h7.045
			c0.425,0,0.83,0.009,1.214,0.026s0.75,0.061,1.099,0.131c0.35,0.069,0.681,0.174,0.995,0.313c0.313,0.14,0.61,0.328,0.89,0.565
			c0.244,0.209,0.457,0.445,0.638,0.706c0.182,0.262,0.334,0.539,0.456,0.833c0.122,0.293,0.214,0.596,0.277,0.91
			c0.063,0.314,0.094,0.632,0.094,0.952c0,0.552-0.082,1.062-0.246,1.528c-0.164,0.468-0.399,0.883-0.706,1.246
			c-0.308,0.362-0.683,0.668-1.125,0.916c-0.443,0.247-0.94,0.434-1.492,0.56c0.559,0.182,1.049,0.508,1.471,0.979
			s0.783,1.104,1.083,1.899L494.96,245.995z M483.803,237.308h4.721c0.655,0,1.217-0.049,1.685-0.146s0.852-0.255,1.151-0.471
			c0.3-0.217,0.52-0.501,0.659-0.854s0.21-0.783,0.21-1.293c0-0.914-0.279-1.589-0.838-2.025c-0.558-0.436-1.409-0.653-2.554-0.653
			h-5.034V237.308z"/>
		<path fill="#9D9D9C" d="M527.439,230.106l-4.417,15.889h-2.01l-3.831-13.816l-3.81,13.816h-2.021l-4.396-15.889h2.219
			l3.171,12.947l3.569-12.947h2.555l3.559,12.947l3.192-12.947H527.439z"/>
		<path fill="#9D9D9C" d="M541.287,245.995h-11.87v-15.889h11.504v1.895h-9.399v4.825h8.792v1.884h-8.792v5.391h9.766V245.995z"/>
		<path fill="#9D9D9C" d="M556.14,241.369c0,1.514-0.499,2.663-1.497,3.448s-2.478,1.178-4.438,1.178h-5.967v-15.889h5.663
			c0.83,0,1.58,0.094,2.25,0.282s1.242,0.457,1.717,0.807c0.475,0.349,0.841,0.774,1.099,1.276c0.259,0.503,0.388,1.067,0.388,1.696
			c0,0.781-0.188,1.447-0.565,1.999c-0.377,0.551-0.952,1.012-1.727,1.381c0.516,0.119,0.966,0.304,1.35,0.556
			c0.384,0.251,0.705,0.546,0.963,0.884c0.259,0.339,0.45,0.712,0.576,1.12S556.14,240.937,556.14,241.369z M546.343,236.764h3.537
			c1.158,0,2.016-0.186,2.57-0.555c0.555-0.37,0.832-0.991,0.832-1.863c0-0.398-0.063-0.743-0.188-1.036
			c-0.126-0.293-0.33-0.536-0.612-0.728c-0.283-0.192-0.654-0.337-1.115-0.435c-0.46-0.098-1.021-0.146-1.685-0.146h-3.339V236.764z
			 M546.343,244.101h3.852c2.505,0,3.758-0.91,3.758-2.731c0-0.468-0.064-0.874-0.194-1.22c-0.129-0.346-0.349-0.632-0.659-0.858
			s-0.726-0.395-1.245-0.502c-0.521-0.108-1.171-0.163-1.952-0.163h-3.559V244.101z"/>
	</g>
</g>
<g>
</g>
<g>
</g>
<g>
</g>
<g>
</g>
<g>
</g>
<g>
</g>
</svg>
